<svg xmlns="http://www.w3.org/2000/svg" xml:space="preserve" viewBox="0 0 512 512"><path fill="#20b446" d="M256 31a56.1 56.1 0 0 0-39.8 16.4L16.4 246.6a56.2 56.2 0 0 0 0 79.3L159 468.2a56.4 56.4 0 0 0 37 13.8h119.8c15.6 0 29.8-6.3 40-16.5l139.8-139.4a56.1 56.1 0 0 0 0-79.3L295.7 47.4A56.1 56.1 0 0 0 255.9 31zm0 100c2 0 4 .7 5.6 2.3l28.5 28.5a8 8 0 0 1 0 11.3L150.6 312.7a8 8 0 0 1-5.7 2.3h-17a8 8 0 0 1-5.4-2l-20.3-20.3a8 8 0 0 1 0-11.3l148-148.1a8 8 0 0 1 5.7-2.4zm0 119.5c2 0 4 .8 5.6 2.4l28.5 28.5a8 8 0 0 1 0 11.3l-79.7 79.8a8 8 0 0 1-5.7 2.3h-17c-2.1 0-4-.7-5.4-2L162 352.5a8 8 0 0 1 0-11.4l88.3-88.2a8 8 0 0 1 5.7-2.4zm0 119.6c2 0 4 .8 5.6 2.3l28.5 28.6a8 8 0 0 1 0 11.3l-19.9 20a8 8 0 0 1-5.7 2.3h-17a8 8 0 0 1-5.4-2l-20.3-20.3a8 8 0 0 1 0-11.4l28.5-28.5a8 8 0 0 1 5.7-2.3z"/></svg>