<svg height="64" width="64" xmlns="http://www.w3.org/2000/svg"><path d="M36.3 36.4l-10 10c0 .2-.3.3-.6.3h-2.1a1 1 0 0 1-.7-.2l-2.5-2.6a1 1 0 0 1 0-1.4l11-11a1 1 0 0 1 1.5 0l3.5 3.5c.4.4.4 1 0 1.4m0 15L33.7 54c-.2.1-.4.3-.7.3h-2a1 1 0 0 1-.8-.2l-2.5-2.6a1 1 0 0 1 0-1.4l3.6-3.5a1 1 0 0 1 1.4 0l3.5 3.5c.5.2.5 1 0 1.3M19 39l-.7.3H16a1 1 0 0 1-.7-.3L13 36.5a1 1 0 0 1 0-1.4l18.5-18.6a1 1 0 0 1 1.5 0l3.5 3.6c.4.4.4 1 0 1.4zM37 5.7a7.1 7.1 0 0 0-9.9 0l-25 25a7 7 0 0 0 0 10l17.8 17.8a7 7 0 0 0 4.6 1.8h15c2 0 3.8-.8 5-2.1L62 40.7a7.1 7.1 0 0 0 0-10z" fill="#2bb24d"/></svg>