<svg xmlns="http://www.w3.org/2000/svg" xml:space="preserve" viewBox="0 0 512 512"><path fill="#20b446" d="M256 31a56.1 56.1 0 0 0-39.8 16.4L16.4 246.6a56.2 56.2 0 0 0 0 79.4L159 468.2a56.4 56.4 0 0 0 37 13.8h119.8c15.6 0 29.8-6.3 40-16.5l139.8-139.4a56.1 56.1 0 0 0 0-79.3l-200-199.4A56.1 56.1 0 0 0 256 31z"/><path fill="#fff" d="M256 131a8 8 0 0 0-5.7 2.3l-148.1 148a8 8 0 0 0 0 11.4l20.3 20.4a8 8 0 0 0 5.3 2H145a8 8 0 0 0 5.7-2.4L290.1 173a8 8 0 0 0 0-11.3l-28.5-28.5a8 8 0 0 0-5.7-2.4zm0 119.5a8 8 0 0 0-5.7 2.4L162 341.2a8 8 0 0 0 0 11.3l20.3 20.4c1.4 1.2 3.3 2 5.3 2h17.1a8 8 0 0 0 5.7-2.4l79.7-79.8a8 8 0 0 0 0-11.3l-28.5-28.5a8 8 0 0 0-5.6-2.4zm0 119.6a8 8 0 0 0-5.7 2.4L221.8 401a8 8 0 0 0 0 11.3l20.3 20.3a8 8 0 0 0 5.3 2h17a8 8 0 0 0 5.8-2.3l20-20a8 8 0 0 0 0-11.3l-28.6-28.5a8 8 0 0 0-5.6-2.4z"/></svg>